<svg width="66" height="56" viewBox="0 0 66 56" fill="none" xmlns="http://www.w3.org/2000/svg">
<path d="M8.25 16.6633L26.1415 28L8.25 39.3367V16.6633ZM5.82205 11.106C4.9442 11.106 4.125 11.6966 4.125 12.5431V43.4569C4.125 44.3035 4.9442 44.8941 5.82205 44.8941C6.15012 44.8941 6.48656 44.8115 6.79143 44.6288L31.3945 29.0396C32.2137 28.5206 32.2137 27.4788 31.3945 26.9599L6.79143 11.3706C6.48656 11.1885 6.15012 11.106 5.82205 11.106ZM38.1163 16.6633L56.0078 28L38.1163 39.3367V16.6633ZM35.6883 11.106C34.8105 11.106 33.9913 11.6966 33.9913 12.5431V43.4569C33.9913 44.3035 34.8105 44.8941 35.6883 44.8941C36.0164 44.8941 36.3528 44.8115 36.6577 44.6288L61.2608 29.0396C62.08 28.5206 62.08 27.4788 61.2608 26.9599L36.6577 11.3706C36.3528 11.1885 36.0164 11.106 35.6883 11.106Z" fill="white"/>
</svg>
