<svg width="100" height="100" viewBox="0 0 100 100" fill="none" xmlns="http://www.w3.org/2000/svg">
<circle cx="50" cy="50" r="50" fill="#3D3D3D"/>
<path d="M69.5938 37.8125H31.4062C30.5984 37.8125 29.9375 38.4734 29.9375 39.2812V65.7188C29.9375 66.5266 30.5984 67.1875 31.4062 67.1875H69.5938C70.4016 67.1875 71.0625 66.5266 71.0625 65.7188V39.2812C71.0625 38.4734 70.4016 37.8125 69.5938 37.8125ZM68.125 64.25H32.875V40.75H68.125V64.25ZM41.6875 46.625H35.8125V43.6875H41.6875V46.625ZM62.25 55.4375V49.5625H65.1875V58.375H56.375V55.4375H62.25ZM53.4375 58.375H35.8125V55.4375H53.4375V58.375ZM47.5625 46.625H44.625V43.6875H47.5625V46.625ZM53.4375 46.625H50.5V43.6875H53.4375V46.625ZM59.3125 46.625H56.375V43.6875H59.3125V46.625ZM65.1875 46.625H62.25V43.6875H65.1875V46.625ZM38.75 52.5H35.8125V49.5625H38.75V52.5ZM41.6875 49.5625H44.625V52.5H41.6875V49.5625ZM47.5625 49.5625H50.5V52.5H47.5625V49.5625ZM53.4375 49.5625H56.375V52.5H53.4375V49.5625Z" fill="white"/>
</svg>
