<svg width="47" height="47" viewBox="0 0 47 47" fill="none" xmlns="http://www.w3.org/2000/svg">
<path d="M42.5938 8.8125H4.40625C3.59844 8.8125 2.9375 9.47344 2.9375 10.2812V36.7188C2.9375 37.5266 3.59844 38.1875 4.40625 38.1875H42.5938C43.4016 38.1875 44.0625 37.5266 44.0625 36.7188V10.2812C44.0625 9.47344 43.4016 8.8125 42.5938 8.8125ZM41.125 35.25H5.875V11.75H41.125V35.25ZM14.6875 17.625H8.8125V14.6875H14.6875V17.625ZM35.25 26.4375V20.5625H38.1875V29.375H29.375V26.4375H35.25ZM26.4375 29.375H8.8125V26.4375H26.4375V29.375ZM20.5625 17.625H17.625V14.6875H20.5625V17.625ZM26.4375 17.625H23.5V14.6875H26.4375V17.625ZM32.3125 17.625H29.375V14.6875H32.3125V17.625ZM38.1875 17.625H35.25V14.6875H38.1875V17.625ZM11.75 23.5H8.8125V20.5625H11.75V23.5ZM14.6875 20.5625H17.625V23.5H14.6875V20.5625ZM20.5625 20.5625H23.5V23.5H20.5625V20.5625ZM26.4375 20.5625H29.375V23.5H26.4375V20.5625Z" fill="white"/>
</svg>
