<svg width="100" height="100" viewBox="0 0 100 100" fill="none" xmlns="http://www.w3.org/2000/svg">
<circle cx="50" cy="50" r="50" fill="white"/>
<path d="M50 55.625C55.1562 55.625 59.375 51.4062 59.375 46.25V35C59.375 29.8438 55.1562 25.625 50 25.625C44.8438 25.625 40.625 29.8438 40.625 35V46.25C40.625 51.4062 44.8438 55.625 50 55.625Z" fill="#FF354D"/>
<path d="M66.6757 48.8515C66.8339 47.8261 66.1366 46.871 65.1112 46.7128C64.0859 46.5605 63.1308 47.2577 62.9726 48.2773C61.9882 54.6054 56.4159 59.3749 49.9999 59.3749C43.5839 59.3749 38.0058 54.5995 37.0273 48.2714C36.8691 47.246 35.9081 46.5487 34.8886 46.7069C33.8632 46.8652 33.1659 47.8202 33.3241 48.8456C34.5077 56.4921 40.5898 62.1933 48.1249 63.0136V68.7499H42.4999C41.4628 68.7499 40.6249 69.5878 40.6249 70.6249C40.6249 71.662 41.4628 72.4999 42.4999 72.4999H57.4999C58.537 72.4999 59.3749 71.662 59.3749 70.6249C59.3749 69.5878 58.537 68.7499 57.4999 68.7499H51.8749V63.0136C59.4042 62.1933 65.4921 56.498 66.6757 48.8515Z" fill="#FF354D"/>
</svg>
