<svg width="28" height="28" viewBox="0 0 28 28" fill="none" xmlns="http://www.w3.org/2000/svg">
<path d="M25.9055 23.625C24.4234 19.0777 20.1305 15.8292 15.0664 15.7363C14.4348 15.7253 13.8387 15.739 13.2727 15.7773V20.2699C13.2754 20.2835 13.2781 20.2972 13.2781 20.3109C13.2781 20.4203 13.1879 20.5105 13.0785 20.5105C13.0047 20.5105 12.9418 20.4722 12.909 20.4148V20.4339L1.88126 12.7257H1.93868C1.82931 12.7257 1.73907 12.6355 1.73907 12.5261C1.73907 12.4468 1.78556 12.3785 1.85118 12.3457L12.9063 4.62104V4.64019C12.9418 4.58276 13.0047 4.54448 13.0758 4.54448C13.1852 4.54448 13.2754 4.63472 13.2754 4.74409C13.2754 4.75776 13.2727 4.77144 13.2699 4.78511V9.1437C13.7758 9.11909 14.3063 9.11089 14.8641 9.12183C21.1559 9.22847 26.2582 14.5058 26.2582 20.8003C26.2609 21.771 26.1352 22.7199 25.9055 23.625ZM13.2727 4.36401V4.36948H13.2617L13.2727 4.36401ZM13.2727 20.6855L13.2645 20.68H13.2727V20.6855Z" fill="#FFB128"/>
</svg>
